<?xml version="1.0" encoding="UTF-8" standalone="no"?>
<!-- Created with Inkscape (http://www.inkscape.org/) -->

<svg
   xmlns:dc="http://purl.org/dc/elements/1.1/"
   xmlns:cc="http://creativecommons.org/ns#"
   xmlns:rdf="http://www.w3.org/1999/02/22-rdf-syntax-ns#"
   xmlns:svg="http://www.w3.org/2000/svg"
   xmlns="http://www.w3.org/2000/svg"
   xmlns:sodipodi="http://sodipodi.sourceforge.net/DTD/sodipodi-0.dtd"
   xmlns:inkscape="http://www.inkscape.org/namespaces/inkscape"
   width="150.32118mm"
   height="87.011124mm"
   viewBox="0 0 150.32118 87.011123"
   version="1.1"
   id="svg8"
   inkscape:version="0.92.1 r15371"
   sodipodi:docname="my_roadrunner.svg">
  <defs
     id="defs2" />
  <sodipodi:namedview
     id="base"
     pagecolor="#600066"
     bordercolor="#666666"
     borderopacity="1.0"
     inkscape:pageopacity="0"
     inkscape:pageshadow="2"
     inkscape:zoom="4"
     inkscape:cx="200.47726"
     inkscape:cy="148.42407"
     inkscape:document-units="mm"
     inkscape:current-layer="layer2"
     showgrid="true"
     inkscape:window-width="1508"
     inkscape:window-height="1008"
     inkscape:window-x="13"
     inkscape:window-y="0"
     inkscape:window-maximized="0"
     inkscape:pagecheckerboard="false"
     inkscape:object-nodes="true"
     inkscape:snap-others="true"
     inkscape:snap-midpoints="false"
     inkscape:snap-smooth-nodes="true"
     inkscape:object-paths="true"
     inkscape:snap-grids="true"
     inkscape:snap-to-guides="false"
     fit-margin-top="0"
     fit-margin-left="0"
     fit-margin-right="0"
     fit-margin-bottom="0"
     inkscape:snap-nodes="true"
     inkscape:snap-intersection-paths="true"
     inkscape:snap-global="true">
    <inkscape:grid
       type="xygrid"
       id="grid10"
       originx="-22.053054"
       originy="-128.08102" />
  </sodipodi:namedview>
  <metadata
     id="metadata5">
    <rdf:RDF>
      <cc:Work
         rdf:about="">
        <dc:format>image/svg+xml</dc:format>
        <dc:type
           rdf:resource="http://purl.org/dc/dcmitype/StillImage" />
        <dc:title />
      </cc:Work>
    </rdf:RDF>
  </metadata>
  <g
     inkscape:label="Cu"
     inkscape:groupmode="layer"
     id="layer1"
     style="display:inline"
     transform="translate(-22.053056,-81.90786)">
    <path
       style="display:inline;fill:#ffa900;fill-opacity:1;stroke:none;stroke-width:0.26458332px;stroke-linecap:butt;stroke-linejoin:miter;stroke-opacity:1"
       d="m 54.239585,131.63542 11.658973,-14.8398 -16.950639,5.57938 c -11.327398,5.20578 -6.614586,14.55208 -6.614586,14.55208 z"
       id="path4551"
       inkscape:connector-curvature="0"
       sodipodi:nodetypes="ccccc" />
  </g>
  <g
     inkscape:groupmode="layer"
     id="layer3"
     inkscape:label="Mask"
     style="display:inline"
     transform="translate(-19.961422,18.88074)">
    <path
       style="display:inline;fill:#ffffff;fill-opacity:0.34170855;stroke:none;stroke-width:0.26458332px;stroke-linecap:butt;stroke-linejoin:miter;stroke-opacity:1"
       d="M 52.147951,30.84682 63.806924,16.00702 46.856285,21.586404 C 35.528887,26.792184 40.241699,36.13848 40.241699,36.13848 Z"
       id="path4551-7"
       inkscape:connector-curvature="0"
       sodipodi:nodetypes="ccccc" />
    <path
       transform="translate(-2.091634,-100.7886)"
       style="display:inline;fill:#300033;fill-opacity:1;stroke:none;stroke-width:1;stroke-linecap:butt;stroke-linejoin:miter;stroke-miterlimit:50;stroke-dasharray:none;stroke-opacity:1"
       d="m 108.47917,130.3125 c 0,0 -1.09273,-3.37432 -3.96875,-5.29166 -23.812501,-15.875 -38.61186,-8.22522 -38.61186,-8.22522 l -11.617467,15.15901 29.062659,1.00371 z"
       id="path4502"
       inkscape:connector-curvature="0"
       sodipodi:nodetypes="cscccc" />
  </g>
  <g
     inkscape:groupmode="layer"
     id="layer2"
     inkscape:label="SilkS"
     style="display:inline"
     transform="translate(-22.053056,-81.90786)">
    <path
       style="display:inline;fill:#ffffff;fill-opacity:1;stroke:none;stroke-width:1;stroke-linecap:round;stroke-linejoin:miter;stroke-miterlimit:100;stroke-dasharray:none;stroke-opacity:1"
       d="M 54.239585,131.63542 C 21.563543,143.0125 40.154986,144.08534 40.154986,144.08534 L 108.47917,130.3125 c 0,0 -29.104168,3.96875 -54.239585,1.32292 z"
       id="path4512"
       inkscape:connector-curvature="0"
       sodipodi:nodetypes="cccc" />
    <path
       style="display:inline;fill:none;fill-opacity:1;stroke:none;stroke-width:3;stroke-linecap:butt;stroke-linejoin:miter;stroke-miterlimit:10;stroke-dasharray:none;stroke-opacity:1"
       d="m 107.15625,130.3125 v -7.9375 l -3.96875,2.64583 C 92.604168,98.562502 64.141987,84.210801 64.141987,84.210801 L 61.561239,105.81833 39.6875,93.270833 42.333333,117.08333 23.812501,109.14583 29.104167,159.41667 63.5,167.35417 97.895833,154.125 93.927083,142.21875 Z"
       id="path4514"
       inkscape:connector-curvature="0"
       sodipodi:nodetypes="ccccccccccccc" />
    <path
       style="display:inline;fill:#f3f3f3;fill-opacity:1;stroke:none;stroke-width:3;stroke-linecap:butt;stroke-linejoin:miter;stroke-miterlimit:2.5;stroke-dasharray:none;stroke-opacity:1;paint-order:normal"
       d="m 170.65625,141.68958 c -1.30962,-8.04481 -62.17708,-11.37708 -62.17708,-11.37708 l -11.906251,10.58334 c 0,0 68.460831,-3.10759 74.083331,0.79374 z"
       id="path4495"
       inkscape:connector-curvature="0"
       sodipodi:nodetypes="cccc" />
    <path
       style="display:inline;fill:#f3f3f3;fill-opacity:1;stroke:none;stroke-width:3;stroke-linecap:butt;stroke-linejoin:miter;stroke-miterlimit:1.5;stroke-dasharray:none;stroke-opacity:1"
       d="m 168.01042,142.21875 c -12.52013,-2.74508 -54.24682,1.32292 -73.025001,1.32292 l -8.995834,9.26042 c 6.548107,-6.92228 82.020835,-10.58334 82.020835,-10.58334 z"
       id="path4497"
       inkscape:connector-curvature="0"
       sodipodi:nodetypes="cccc" />
    <path
       transform="translate(2.0916339,100.7886)"
       style="display:inline;fill:#f3f3f3;fill-opacity:1;stroke:none;stroke-width:0.26458332px;stroke-linecap:butt;stroke-linejoin:miter;stroke-opacity:1"
       d="M 95.804201,-15.455263 59.469605,5.02973 53.470868,-10.163596 40.241699,16.29473 32.304201,3.0655703 23.886056,28.926533 67.092433,15.000851 c 18.147601,-3.274052 35.326347,9.231386 35.326347,9.231386 -10.680352,-18.4848229 -6.614579,-39.6875 -6.614579,-39.6875 z"
       id="path4554"
       inkscape:connector-curvature="0"
       sodipodi:nodetypes="ccccccccc" />
    <path
       style="fill:#ffffff;fill-opacity:1;fill-rule:evenodd;stroke:#ffffff;stroke-width:3;stroke-linecap:butt;stroke-linejoin:miter;stroke-miterlimit:2.5;stroke-dasharray:none;stroke-opacity:1"
       d="m 87.669726,125.26273 a 2.2489583,2.2489583 0 0 1 -2.248958,2.24896 2.2489583,2.2489583 0 0 1 -2.248959,-2.24896 2.2489583,2.2489583 0 0 1 2.248959,-2.24895 2.2489583,2.2489583 0 0 1 2.248958,2.24895 z"
       id="path4539"
       inkscape:connector-curvature="0" />
    <path
       inkscape:connector-curvature="0"
       style="display:inline;fill:none;fill-opacity:1;fill-rule:evenodd;stroke:#ffffff;stroke-width:1.53822243;stroke-linecap:butt;stroke-linejoin:miter;stroke-miterlimit:2.5;stroke-dasharray:none;stroke-opacity:1"
       d="m 89.567864,125.26272 a 6.4193475,5.533573 0 0 1 -6.419346,5.53358 6.4193475,5.533573 0 0 1 -6.419349,-5.53358 6.4193475,5.533573 0 0 1 6.419349,-5.53355 6.4193475,5.533573 0 0 1 6.419346,5.53355 z"
       id="path4539-6" />
  </g>
</svg>
